<svg width="26" height="26" viewBox="0 0 26 26" fill="none" xmlns="http://www.w3.org/2000/svg">
<path fill-rule="evenodd" clip-rule="evenodd" d="M9.68438 3.31573C6.19626 3.31573 3.36859 6.14341 3.36859 9.63152C3.36859 13.1196 6.19626 15.9473 9.68438 15.9473C13.1725 15.9473 16.0002 13.1196 16.0002 9.63152C16.0002 6.14341 13.1725 3.31573 9.68438 3.31573ZM0.210693 9.63152C0.210693 4.39935 4.45221 0.157837 9.68438 0.157837C14.9165 0.157837 19.1581 4.39935 19.1581 9.63152C19.1581 11.6776 18.5094 13.5721 17.4066 15.1208L25.0114 22.7256C25.628 23.3422 25.628 24.3419 25.0114 24.9585C24.3948 25.5752 23.395 25.5752 22.7784 24.9585L15.1736 17.3538C13.625 18.4566 11.7304 19.1052 9.68438 19.1052C4.45221 19.1052 0.210693 14.8637 0.210693 9.63152Z" fill="#D1D5DB"/>
</svg>
